<svg xmlns="http://www.w3.org/2000/svg" viewBox="0 0 512 512">
  <defs>
    <linearGradient id="bg" x1="82" y1="44" x2="432" y2="470" gradientUnits="userSpaceOnUse">
      <stop stop-color="#38a5f5"/>
      <stop offset=".52" stop-color="#1d70d6"/>
      <stop offset="1" stop-color="#09215f"/>
    </linearGradient>
    <linearGradient id="sun" x1="121" y1="119" x2="221" y2="219" gradientUnits="userSpaceOnUse">
      <stop stop-color="#fff7b8"/>
      <stop offset="1" stop-color="#ffb84d"/>
    </linearGradient>
  </defs>
  <rect width="512" height="512" rx="112" fill="url(#bg)"/>
  <circle cx="154" cy="154" r="52" fill="url(#sun)"/>
  <path d="M66 350l105-119 73 87 64-72 138 104v78H66v-78z" fill="#f8fbff" opacity=".95"/>
  <path d="M66 383l113-90 62 54 72-80 133 116v45H66v-45z" fill="#d9efff"/>
  <path d="M283 155c48-29 92-36 109-17 17 20 0 61-38 98l41 74c4 8 3 17-3 23l-13 13-61-70c-24 17-49 31-72 40l-5 53c-1 8-6 15-14 18l-18 7-15-62-62-15 7-18c3-8 10-13 18-14l53-5c9-23 23-48 40-72l-70-61 13-13c6-6 15-7 23-3l74 41z" fill="#071837"/>
  <path d="M284 176c38-23 72-31 82-19 11 12-7 43-42 73-35 31-72 49-83 37-10-12 5-59 43-91z" fill="#fff"/>
</svg>
